<?xml version="1.0" encoding="UTF-8"?>
<!DOCTYPE svg PUBLIC "-//W3C//DTD SVG 1.1//EN" "http://www.w3.org/Graphics/SVG/1.1/DTD/svg11.dtd">
<svg xmlns="http://www.w3.org/2000/svg" version="1.1" width="512px" height="512px" style="shape-rendering:geometricPrecision; text-rendering:geometricPrecision; image-rendering:optimizeQuality; fill-rule:evenodd; clip-rule:evenodd" xmlns:xlink="http://www.w3.org/1999/xlink">
<g><path style="opacity:0.971" fill="#188110" d="M 345.5,409.5 C 338.844,398.861 332.178,388.195 325.5,377.5C 342.833,377.5 360.167,377.5 377.5,377.5C 377.167,353.491 377.5,329.491 378.5,305.5C 395.319,289.181 411.986,272.681 428.5,256C 411.667,239.167 394.833,222.333 378,205.5C 377.5,181.502 377.333,157.502 377.5,133.5C 353.498,133.667 329.498,133.5 305.5,133C 288.638,116.472 272.138,99.6382 256,82.5C 239.167,99.3333 222.333,116.167 205.5,133C 202.183,133.498 198.85,133.665 195.5,133.5C 195.5,133.167 195.5,132.833 195.5,132.5C 191.165,122.495 186.832,112.495 182.5,102.5C 182.5,102.167 182.5,101.833 182.5,101.5C 185.85,101.665 189.183,101.498 192.5,101C 213.347,79.9861 234.347,59.1528 255.5,38.5C 276.653,59.1528 297.653,79.9861 318.5,101C 348.832,101.5 379.165,101.667 409.5,101.5C 409.333,131.835 409.5,162.168 410,192.5C 431.014,213.347 451.847,234.347 472.5,255.5C 451.847,276.653 431.014,297.653 410,318.5C 409.5,348.832 409.333,379.165 409.5,409.5C 388.167,409.5 366.833,409.5 345.5,409.5 Z"/></g>
<g><path style="opacity:0.38" fill="#e1a514" d="M 182.5,101.5 C 182.5,101.833 182.5,102.167 182.5,102.5C 155.833,102.5 129.167,102.5 102.5,102.5C 103.159,133.185 102.492,163.518 100.5,193.5C 101.492,162.907 101.825,132.24 101.5,101.5C 128.5,101.5 155.5,101.5 182.5,101.5 Z"/></g>
<g><path style="opacity:1" fill="#f8a914" d="M 182.5,102.5 C 186.832,112.495 191.165,122.495 195.5,132.5C 174.5,132.5 153.5,132.5 132.5,132.5C 132.5,156.833 132.5,181.167 132.5,205.5C 116.035,222.465 99.3684,239.299 82.5,256C 99.3395,271.673 115.673,287.84 131.5,304.5C 132.481,329.122 132.814,353.789 132.5,378.5C 156.833,378.5 181.167,378.5 205.5,378.5C 222.465,394.965 239.299,411.632 256,428.5C 272.681,411.986 289.181,395.319 305.5,378.5C 312.134,377.503 318.8,377.17 325.5,377.5C 332.178,388.195 338.844,398.861 345.5,409.5C 336.494,409.334 327.494,409.5 318.5,410C 297.653,431.014 276.653,451.847 255.5,472.5C 234.146,451.812 213.146,430.812 192.5,409.5C 162.671,408.502 132.671,408.169 102.5,408.5C 102.831,378.329 102.498,348.329 101.5,318.5C 80.1877,297.854 59.1877,276.854 38.5,255.5C 58.8543,234.479 79.521,213.812 100.5,193.5C 102.492,163.518 103.159,133.185 102.5,102.5C 129.167,102.5 155.833,102.5 182.5,102.5 Z"/></g>
<g><path style="opacity:0.408" fill="#b8a011" d="M 195.5,132.5 C 195.5,132.833 195.5,133.167 195.5,133.5C 174.833,133.5 154.167,133.5 133.5,133.5C 133.831,157.672 133.498,181.672 132.5,205.5C 132.5,181.167 132.5,156.833 132.5,132.5C 153.5,132.5 174.5,132.5 195.5,132.5 Z"/></g>
<g><path style="opacity:0.977" fill="#f7a914" d="M 287.5,195.5 C 285.181,195.992 283.181,196.992 281.5,198.5C 272.659,201.687 264.326,200.687 256.5,195.5C 278.177,193.665 288.011,181.999 286,160.5C 283.929,153.266 279.762,147.599 273.5,143.5C 289.718,145.389 298.718,154.723 300.5,171.5C 299.788,181.6 295.454,189.6 287.5,195.5 Z"/></g>
<g><path style="opacity:0.967" fill="#198210" d="M 166.5,352.5 C 172.5,352.5 178.5,352.5 184.5,352.5C 184.5,328.5 184.5,304.5 184.5,280.5C 178.409,280.211 172.409,280.545 166.5,281.5C 161.106,278.912 159.106,274.579 160.5,268.5C 158.976,261.871 161.309,257.538 167.5,255.5C 173.167,255.5 178.833,255.5 184.5,255.5C 184.5,245.167 184.5,234.833 184.5,224.5C 178.833,224.5 173.167,224.5 167.5,224.5C 165.167,224.5 162.833,224.5 160.5,224.5C 160.5,222.167 160.5,219.833 160.5,217.5C 161.833,217.5 163.167,217.5 164.5,217.5C 164.5,216.167 164.5,214.833 164.5,213.5C 165.552,213.649 166.552,213.483 167.5,213C 160,196.486 165,185.319 182.5,179.5C 184.975,166.441 186.975,166.774 188.5,180.5C 204.347,184.515 210.18,194.515 206,210.5C 205.5,211.667 204.667,212.5 203.5,213C 204.793,213.49 206.127,213.657 207.5,213.5C 207.5,214.833 207.5,216.167 207.5,217.5C 208.833,217.5 210.167,217.5 211.5,217.5C 211.5,219.833 211.5,222.167 211.5,224.5C 209.5,224.5 207.5,224.5 205.5,224.5C 205.168,234.855 205.501,245.188 206.5,255.5C 208.258,256.128 209.758,257.128 211,258.5C 213.158,265.261 212.992,271.927 210.5,278.5C 209.086,279.624 207.586,280.624 206,281.5C 205.5,305.498 205.333,329.498 205.5,353.5C 192.323,353.829 179.323,353.495 166.5,352.5 Z"/></g>
<g><path style="opacity:0.997" fill="#178110" d="M 287.5,195.5 C 289.818,204.44 291.985,213.44 294,222.5C 331.429,230.256 351.929,253.09 355.5,291C 355.465,305.489 351.132,318.489 342.5,330C 326.17,330.5 309.837,330.667 293.5,330.5C 280.796,312.61 268.63,294.276 257,275.5C 250.479,263.735 244.646,251.735 239.5,239.5C 249.777,230.532 261.777,225.032 275.5,223C 277.564,214.844 279.564,206.678 281.5,198.5C 283.181,196.992 285.181,195.992 287.5,195.5 Z"/></g>
<g><path style="opacity:1" fill="#249b1b" d="M 167.5,224.5 C 173.167,224.5 178.833,224.5 184.5,224.5C 184.5,234.833 184.5,245.167 184.5,255.5C 178.833,255.5 173.167,255.5 167.5,255.5C 166.167,245.167 166.167,234.833 167.5,224.5 Z"/></g>
<g><path style="opacity:1" fill="#249b1b" d="M 239.5,239.5 C 244.646,251.735 250.479,263.735 257,275.5C 268.63,294.276 280.796,312.61 293.5,330.5C 271.157,330.833 248.823,330.5 226.5,329.5C 209.237,300.87 210.737,273.203 231,246.5C 233.436,243.553 236.269,241.22 239.5,239.5 Z"/></g>
<g><path style="opacity:1" fill="#f9ab15" d="M 176.5,261.5 C 176.5,266.833 176.5,272.167 176.5,277.5C 173.5,277.5 170.5,277.5 167.5,277.5C 167.212,271.771 167.546,266.104 168.5,260.5C 171.64,257.623 174.307,257.957 176.5,261.5 Z"/></g>
<g><path style="opacity:1" fill="#f9ab15" d="M 184.5,258.5 C 186.936,258.317 189.103,258.984 191,260.5C 191.499,266.491 191.666,272.491 191.5,278.5C 188.5,278.5 185.5,278.5 182.5,278.5C 182.334,272.491 182.501,266.491 183,260.5C 183.717,259.956 184.217,259.289 184.5,258.5 Z"/></g>
<g><path style="opacity:1" fill="#f2a914" d="M 198.5,258.5 C 201.368,258.085 203.535,259.085 205,261.5C 205.499,267.157 205.666,272.824 205.5,278.5C 202.167,278.5 198.833,278.5 195.5,278.5C 195.334,272.824 195.501,267.157 196,261.5C 196.698,260.309 197.531,259.309 198.5,258.5 Z"/></g>
<g><path style="opacity:1" fill="#be9f13" d="M 176.5,261.5 C 177.489,266.975 177.822,272.642 177.5,278.5C 173.958,278.813 170.625,278.479 167.5,277.5C 170.5,277.5 173.5,277.5 176.5,277.5C 176.5,272.167 176.5,266.833 176.5,261.5 Z"/></g>
<g><path style="opacity:1" fill="#249b1b" d="M 166.5,352.5 C 166.5,328.833 166.5,305.167 166.5,281.5C 172.409,280.545 178.409,280.211 184.5,280.5C 184.5,304.5 184.5,328.5 184.5,352.5C 178.5,352.5 172.5,352.5 166.5,352.5 Z"/></g>
<g><path style="opacity:0.959" fill="#f9a914" d="M 217.5,332.5 C 263.167,332.5 308.833,332.5 354.5,332.5C 354.5,337.167 354.5,341.833 354.5,346.5C 308.833,346.5 263.167,346.5 217.5,346.5C 217.5,341.833 217.5,337.167 217.5,332.5 Z"/></g>
<g><path style="opacity:0.982" fill="#f9a914" d="M 217.5,348.5 C 263.167,348.5 308.833,348.5 354.5,348.5C 354.5,353.167 354.5,357.833 354.5,362.5C 308.833,362.5 263.167,362.5 217.5,362.5C 217.5,357.833 217.5,353.167 217.5,348.5 Z"/></g>
<g><path style="opacity:0.29" fill="#b09f11" d="M 131.5,304.5 C 132.117,304.611 132.617,304.944 133,305.5C 133.5,329.498 133.667,353.498 133.5,377.5C 157.672,377.169 181.672,377.502 205.5,378.5C 181.167,378.5 156.833,378.5 132.5,378.5C 132.814,353.789 132.481,329.122 131.5,304.5 Z"/></g>
<g><path style="opacity:0.498" fill="#e4a514" d="M 101.5,318.5 C 102.498,348.329 102.831,378.329 102.5,408.5C 132.671,408.169 162.671,408.502 192.5,409.5C 162.167,409.5 131.833,409.5 101.5,409.5C 101.5,379.167 101.5,348.833 101.5,318.5 Z"/></g>
</svg>
